STARTFONT 2.1
COMMENT AUTOMATICALLY GENERATED FILE. DO NOT EDIT!
COMMENT Generated with 'ucs2any.pl luBIS12.bdf ../../../fonts/util/map-ISO8859-1 ISO8859-1'
COMMENT from an ISO10646-1 encoded source BDF font.
COMMENT ucs2any.pl by Markus Kuhn <mkuhn@acm.org>, 2000.
COMMENT $Xorg: $
COMMENT ISO10646-1 extension by Markus Kuhn <mkuhn@acm.org>, 2001-03-20
COMMENT  (c) Copyright Bigelow & Holmes 1986, 1985. Lucida is a registered
COMMENT  trademark of Bigelow & Holmes. See LEGAL NOTICE file for terms 
COMMENT  of the license. 
COMMENT GRID 0012 0012 0200 0200
FONT -B&H-Lucida-Bold-I-Normal-Sans-12-120-75-75-P-79-ISO8859-1
SIZE 12 72 72
FONTBOUNDINGBOX 15 13 -1 -2
STARTPROPERTIES 22
COMMENT Begin LogicalFontDescription
FONTNAME_REGISTRY ""
FOUNDRY "B&H"
FAMILY_NAME "Lucida"
WEIGHT_NAME "Bold"
SLANT "I"
SETWIDTH_NAME "Normal"
ADD_STYLE_NAME "Sans"
PIXEL_SIZE 12
POINT_SIZE 120
RESOLUTION_X 75
RESOLUTION_Y 75
SPACING "P"
AVERAGE_WIDTH 79
CHARSET_REGISTRY "ISO8859"
CHARSET_ENCODING "1"
COMMENT END LogicalFontDescription
FONT_ASCENT 11
FONT_DESCENT 2
DEFAULT_CHAR 0
COPYRIGHT "Copyright Bigelow & Holmes 1986, 1985."
FACE_NAME "Lucida Sans Bold Italic"
X_HEIGHT 7
CAP_HEIGHT 9
ENDPROPERTIES
CHARS 192
STARTCHAR defaultchar
ENCODING 0
SWIDTH 813 0
DWIDTH 10 0
BBX 7 9 1 0
BITMAP
AA
00
82
00
82
00
82
00
AA
ENDCHAR
STARTCHAR space
ENCODING 32
SWIDTH 343 0
DWIDTH 4 0
BBX 1 1 0 0
BITMAP
00
ENDCHAR
STARTCHAR exclam
ENCODING 33
SWIDTH 343 0
DWIDTH 4 0
BBX 4 9 1 0
BITMAP
30
30
30
60
60
60
00
C0
C0
ENDCHAR
STARTCHAR quotedbl
ENCODING 34
SWIDTH 530 0
DWIDTH 7 0
BBX 5 4 2 6
BITMAP
D8
D8
90
90
ENDCHAR
STARTCHAR numbersign
ENCODING 35
SWIDTH 687 0
DWIDTH 8 0
BBX 9 9 0 0
BITMAP
1B00
1B00
7F80
3600
3600
3600
FF00
6C00
6C00
ENDCHAR
STARTCHAR dollar
ENCODING 36
SWIDTH 687 0
DWIDTH 8 0
BBX 7 11 1 -1
BITMAP
08
3E
68
68
78
38
3C
2C
2C
F8
20
ENDCHAR
STARTCHAR percent
ENCODING 37
SWIDTH 908 0
DWIDTH 11 0
BBX 9 9 1 0
BITMAP
7180
DB00
DA00
7400
0800
1700
2D80
6D80
C700
ENDCHAR
STARTCHAR ampersand
ENCODING 38
SWIDTH 816 0
DWIDTH 10 0
BBX 9 9 1 0
BITMAP
3C00
6600
6600
3400
7980
D980
CD00
CE00
7B00
ENDCHAR
STARTCHAR quotesingle
ENCODING 39
SWIDTH 265 0
DWIDTH 3 0
BBX 2 4 2 6
BITMAP
C0
C0
80
80
ENDCHAR
STARTCHAR parenleft
ENCODING 40
SWIDTH 386 0
DWIDTH 5 0
BBX 5 11 1 -1
BITMAP
18
30
60
60
C0
C0
C0
C0
C0
C0
60
ENDCHAR
STARTCHAR parenright
ENCODING 41
SWIDTH 386 0
DWIDTH 5 0
BBX 5 11 0 -1
BITMAP
30
18
18
18
18
18
18
30
30
60
C0
ENDCHAR
STARTCHAR asterisk
ENCODING 42
SWIDTH 464 0
DWIDTH 6 0
BBX 6 5 0 4
BITMAP
10
94
78
A4
20
ENDCHAR
STARTCHAR plus
ENCODING 43
SWIDTH 687 0
DWIDTH 9 0
BBX 8 7 1 1
BITMAP
08
08
08
FF
10
10
10
ENDCHAR
STARTCHAR comma
ENCODING 44
SWIDTH 343 0
DWIDTH 3 0
BBX 3 4 0 -2
BITMAP
60
60
40
80
ENDCHAR
STARTCHAR hyphen
ENCODING 45
SWIDTH 289 0
DWIDTH 4 0
BBX 3 1 1 4
BITMAP
E0
ENDCHAR
STARTCHAR period
ENCODING 46
SWIDTH 343 0
DWIDTH 3 0
BBX 2 2 1 0
BITMAP
C0
C0
ENDCHAR
STARTCHAR slash
ENCODING 47
SWIDTH 596 0
DWIDTH 7 0
BBX 7 11 0 -1
BITMAP
06
06
0C
0C
18
38
30
60
60
C0
C0
ENDCHAR
STARTCHAR zero
ENCODING 48
SWIDTH 687 0
DWIDTH 8 0
BBX 7 9 1 0
BITMAP
3C
66
66
66
C6
CC
CC
CC
78
ENDCHAR
STARTCHAR one
ENCODING 49
SWIDTH 687 0
DWIDTH 8 0
BBX 4 9 2 0
BITMAP
30
F0
30
30
70
60
60
60
60
ENDCHAR
STARTCHAR two
ENCODING 50
SWIDTH 687 0
DWIDTH 8 0
BBX 7 9 1 0
BITMAP
3C
66
06
0E
1C
30
40
FC
FC
ENDCHAR
STARTCHAR three
ENCODING 51
SWIDTH 687 0
DWIDTH 8 0
BBX 7 9 1 0
BITMAP
3C
66
06
0C
38
0C
0C
CC
78
ENDCHAR
STARTCHAR four
ENCODING 52
SWIDTH 687 0
DWIDTH 8 0
BBX 7 9 1 0
BITMAP
0C
1C
2C
4C
8C
FE
18
18
18
ENDCHAR
STARTCHAR five
ENCODING 53
SWIDTH 687 0
DWIDTH 8 0
BBX 7 9 1 0
BITMAP
3E
3E
40
78
1C
0C
0C
D8
70
ENDCHAR
STARTCHAR six
ENCODING 54
SWIDTH 687 0
DWIDTH 8 0
BBX 7 9 1 0
BITMAP
1C
36
60
60
78
CC
CC
CC
78
ENDCHAR
STARTCHAR seven
ENCODING 55
SWIDTH 687 0
DWIDTH 8 0
BBX 7 9 1 0
BITMAP
7E
7E
06
0C
18
30
60
E0
C0
ENDCHAR
STARTCHAR eight
ENCODING 56
SWIDTH 687 0
DWIDTH 8 0
BBX 7 9 1 0
BITMAP
3C
66
66
34
38
4C
CC
CC
78
ENDCHAR
STARTCHAR nine
ENCODING 57
SWIDTH 687 0
DWIDTH 8 0
BBX 7 9 1 0
BITMAP
3C
66
66
66
3C
0C
0C
D8
70
ENDCHAR
STARTCHAR colon
ENCODING 58
SWIDTH 343 0
DWIDTH 4 0
BBX 3 7 1 0
BITMAP
60
60
00
00
00
C0
C0
ENDCHAR
STARTCHAR semicolon
ENCODING 59
SWIDTH 343 0
DWIDTH 4 0
BBX 4 9 0 -2
BITMAP
30
30
00
00
00
60
60
40
80
ENDCHAR
STARTCHAR less
ENCODING 60
SWIDTH 687 0
DWIDTH 9 0
BBX 7 8 1 0
BITMAP
06
0C
38
60
C0
60
38
0C
ENDCHAR
STARTCHAR equal
ENCODING 61
SWIDTH 687 0
DWIDTH 9 0
BBX 8 3 1 3
BITMAP
7F
00
FE
ENDCHAR
STARTCHAR greater
ENCODING 62
SWIDTH 687 0
DWIDTH 9 0
BBX 7 8 1 0
BITMAP
60
38
0C
06
0C
38
60
C0
ENDCHAR
STARTCHAR question
ENCODING 63
SWIDTH 539 0
DWIDTH 7 0
BBX 6 9 1 0
BITMAP
78
0C
0C
38
60
60
00
C0
C0
ENDCHAR
STARTCHAR at
ENCODING 64
SWIDTH 833 0
DWIDTH 10 0
BBX 9 9 1 0
BITMAP
0F00
3180
6780
4980
DB00
DB00
CD00
6000
3E00
ENDCHAR
STARTCHAR A
ENCODING 65
SWIDTH 771 0
DWIDTH 9 0
BBX 8 9 0 0
BITMAP
03
07
0F
1B
33
3F
63
C3
C3
ENDCHAR
STARTCHAR B
ENCODING 66
SWIDTH 660 0
DWIDTH 8 0
BBX 7 9 1 0
BITMAP
7C
66
66
6C
FC
C6
C6
CC
F8
ENDCHAR
STARTCHAR C
ENCODING 67
SWIDTH 737 0
DWIDTH 9 0
BBX 8 9 1 0
BITMAP
0E
3B
60
60
C0
C0
C0
E2
7C
ENDCHAR
STARTCHAR D
ENCODING 68
SWIDTH 822 0
DWIDTH 10 0
BBX 9 9 1 0
BITMAP
7F00
6380
6180
6180
E180
C300
C300
CE00
F800
ENDCHAR
STARTCHAR E
ENCODING 69
SWIDTH 642 0
DWIDTH 8 0
BBX 7 9 1 0
BITMAP
7E
60
60
60
F8
C0
C0
C0
FC
ENDCHAR
STARTCHAR F
ENCODING 70
SWIDTH 614 0
DWIDTH 7 0
BBX 7 9 1 0
BITMAP
7E
60
60
60
FC
C0
C0
C0
C0
ENDCHAR
STARTCHAR G
ENCODING 71
SWIDTH 755 0
DWIDTH 9 0
BBX 8 9 1 0
BITMAP
0E
3B
60
60
C0
C6
C6
E6
7E
ENDCHAR
STARTCHAR H
ENCODING 72
SWIDTH 813 0
DWIDTH 10 0
BBX 8 9 1 0
BITMAP
63
63
63
63
FF
C6
C6
C6
C6
ENDCHAR
STARTCHAR I
ENCODING 73
SWIDTH 361 0
DWIDTH 5 0
BBX 3 9 1 0
BITMAP
60
60
60
60
E0
C0
C0
C0
C0
ENDCHAR
STARTCHAR J
ENCODING 74
SWIDTH 502 0
DWIDTH 6 0
BBX 6 11 -1 -2
BITMAP
0C
0C
0C
0C
1C
18
18
18
18
38
F0
ENDCHAR
STARTCHAR K
ENCODING 75
SWIDTH 753 0
DWIDTH 9 0
BBX 8 9 1 0
BITMAP
63
66
6C
78
F0
D8
CC
CC
C6
ENDCHAR
STARTCHAR L
ENCODING 76
SWIDTH 623 0
DWIDTH 8 0
BBX 6 9 2 0
BITMAP
60
60
60
60
E0
C0
C0
C0
FC
ENDCHAR
STARTCHAR M
ENCODING 77
SWIDTH 940 0
DWIDTH 12 0
BBX 10 9 1 0
BITMAP
79C0
79C0
6AC0
6EC0
6CC0
CD80
C980
C180
C180
ENDCHAR
STARTCHAR N
ENCODING 78
SWIDTH 789 0
DWIDTH 10 0
BBX 8 9 1 0
BITMAP
61
71
71
7B
5A
CE
8E
86
86
ENDCHAR
STARTCHAR O
ENCODING 79
SWIDTH 855 0
DWIDTH 11 0
BBX 9 9 1 0
BITMAP
0F00
3380
6180
6180
C180
C300
C300
E600
7800
ENDCHAR
STARTCHAR P
ENCODING 80
SWIDTH 645 0
DWIDTH 8 0
BBX 7 9 1 0
BITMAP
7C
66
66
66
CC
F8
C0
C0
C0
ENDCHAR
STARTCHAR Q
ENCODING 81
SWIDTH 855 0
DWIDTH 11 0
BBX 9 11 1 -2
BITMAP
0F00
3380
6180
6180
C180
C300
C300
E600
7800
0E00
0380
ENDCHAR
STARTCHAR R
ENCODING 82
SWIDTH 708 0
DWIDTH 9 0
BBX 7 9 1 0
BITMAP
7C
66
66
6C
F8
D8
CC
CE
C6
ENDCHAR
STARTCHAR S
ENCODING 83
SWIDTH 639 0
DWIDTH 8 0
BBX 7 9 1 0
BITMAP
3C
66
60
70
38
1C
0C
CC
78
ENDCHAR
STARTCHAR T
ENCODING 84
SWIDTH 747 0
DWIDTH 9 0
BBX 8 9 1 0
BITMAP
FF
18
18
18
38
30
30
30
30
ENDCHAR
STARTCHAR U
ENCODING 85
SWIDTH 759 0
DWIDTH 9 0
BBX 8 9 1 0
BITMAP
63
63
63
63
E6
C6
C6
EC
78
ENDCHAR
STARTCHAR V
ENCODING 86
SWIDTH 765 0
DWIDTH 9 0
BBX 7 9 2 0
BITMAP
C6
C6
C6
CC
CC
D8
D0
E0
C0
ENDCHAR
STARTCHAR W
ENCODING 87
SWIDTH 991 0
DWIDTH 12 0
BBX 10 9 2 0
BITMAP
C0C0
CCC0
CCC0
CC80
DD80
DD00
ED00
EE00
CC00
ENDCHAR
STARTCHAR X
ENCODING 88
SWIDTH 696 0
DWIDTH 9 0
BBX 9 9 0 0
BITMAP
7180
3180
3B00
1A00
1C00
2C00
6E00
C600
C700
ENDCHAR
STARTCHAR Y
ENCODING 89
SWIDTH 681 0
DWIDTH 9 0
BBX 7 9 2 0
BITMAP
C6
C6
CC
CC
D8
70
60
60
60
ENDCHAR
STARTCHAR Z
ENCODING 90
SWIDTH 687 0
DWIDTH 9 0
BBX 9 9 0 0
BITMAP
3F80
0380
0700
0E00
1C00
3800
7000
E000
FE00
ENDCHAR
STARTCHAR bracketleft
ENCODING 91
SWIDTH 386 0
DWIDTH 5 0
BBX 6 11 0 -1
BITMAP
3C
30
30
60
60
60
60
C0
C0
C0
F0
ENDCHAR
STARTCHAR backslash
ENCODING 92
SWIDTH 566 0
DWIDTH 7 0
BBX 5 11 1 -1
BITMAP
C0
C0
60
60
60
30
30
30
18
18
18
ENDCHAR
STARTCHAR bracketright
ENCODING 93
SWIDTH 386 0
DWIDTH 5 0
BBX 6 11 0 -1
BITMAP
3C
0C
0C
18
18
18
18
30
30
30
F0
ENDCHAR
STARTCHAR asciicircum
ENCODING 94
SWIDTH 687 0
DWIDTH 9 0
BBX 7 7 1 1
BITMAP
06
0E
16
26
66
C6
86
ENDCHAR
STARTCHAR underscore
ENCODING 95
SWIDTH 500 0
DWIDTH 9 0
BBX 7 1 1 -1
BITMAP
FE
ENDCHAR
STARTCHAR grave
ENCODING 96
SWIDTH 663 0
DWIDTH 8 0
BBX 3 2 3 8
BITMAP
C0
60
ENDCHAR
STARTCHAR a
ENCODING 97
SWIDTH 681 0
DWIDTH 8 0
BBX 7 7 1 0
BITMAP
3E
66
66
C6
CC
DC
EC
ENDCHAR
STARTCHAR b
ENCODING 98
SWIDTH 681 0
DWIDTH 8 0
BBX 7 10 1 0
BITMAP
30
30
30
6E
76
66
C6
CC
CC
F8
ENDCHAR
STARTCHAR c
ENCODING 99
SWIDTH 548 0
DWIDTH 7 0
BBX 6 7 1 0
BITMAP
38
6C
C0
C0
C0
C0
78
ENDCHAR
STARTCHAR d
ENCODING 100
SWIDTH 681 0
DWIDTH 8 0
BBX 8 10 1 0
BITMAP
03
03
03
3E
66
66
C6
CC
DC
6C
ENDCHAR
STARTCHAR e
ENCODING 101
SWIDTH 612 0
DWIDTH 8 0
BBX 7 7 1 0
BITMAP
3C
66
CE
F8
C0
CC
78
ENDCHAR
STARTCHAR f
ENCODING 102
SWIDTH 464 0
DWIDTH 6 0
BBX 7 12 1 -2
BITMAP
0E
18
18
7E
30
30
60
60
60
C0
C0
C0
ENDCHAR
STARTCHAR g
ENCODING 103
SWIDTH 674 0
DWIDTH 8 0
BBX 8 9 0 -2
BITMAP
1F
33
33
66
6E
76
06
CC
78
ENDCHAR
STARTCHAR h
ENCODING 104
SWIDTH 675 0
DWIDTH 8 0
BBX 7 10 1 0
BITMAP
30
30
30
6E
76
66
66
CC
CC
CC
ENDCHAR
STARTCHAR i
ENCODING 105
SWIDTH 343 0
DWIDTH 4 0
BBX 4 10 1 0
BITMAP
30
30
00
60
60
60
60
C0
C0
C0
ENDCHAR
STARTCHAR j
ENCODING 106
SWIDTH 407 0
DWIDTH 5 0
BBX 6 12 -1 -2
BITMAP
0C
0C
00
18
18
18
18
18
30
30
30
E0
ENDCHAR
STARTCHAR k
ENCODING 107
SWIDTH 666 0
DWIDTH 8 0
BBX 7 10 1 0
BITMAP
30
30
30
66
6C
78
70
D8
CC
C6
ENDCHAR
STARTCHAR l
ENCODING 108
SWIDTH 343 0
DWIDTH 4 0
BBX 4 10 1 0
BITMAP
30
30
30
60
60
60
60
C0
C0
C0
ENDCHAR
STARTCHAR m
ENCODING 109
SWIDTH 991 0
DWIDTH 12 0
BBX 11 7 1 0
BITMAP
6EE0
7760
6660
6660
CCC0
CCC0
CCC0
ENDCHAR
STARTCHAR n
ENCODING 110
SWIDTH 675 0
DWIDTH 8 0
BBX 7 7 1 0
BITMAP
6E
76
66
66
CC
CC
CC
ENDCHAR
STARTCHAR o
ENCODING 111
SWIDTH 663 0
DWIDTH 8 0
BBX 7 7 1 0
BITMAP
3C
66
C6
C6
C6
CC
78
ENDCHAR
STARTCHAR p
ENCODING 112
SWIDTH 681 0
DWIDTH 8 0
BBX 8 9 0 -2
BITMAP
36
3B
33
63
66
66
7C
C0
C0
ENDCHAR
STARTCHAR q
ENCODING 113
SWIDTH 681 0
DWIDTH 8 0
BBX 7 9 1 -2
BITMAP
3E
66
66
C6
CC
DC
6C
18
18
ENDCHAR
STARTCHAR r
ENCODING 114
SWIDTH 542 0
DWIDTH 7 0
BBX 6 7 1 0
BITMAP
6C
7C
60
E0
C0
C0
C0
ENDCHAR
STARTCHAR s
ENCODING 115
SWIDTH 527 0
DWIDTH 7 0
BBX 7 7 0 0
BITMAP
3C
66
70
38
1C
CC
78
ENDCHAR
STARTCHAR t
ENCODING 116
SWIDTH 437 0
DWIDTH 6 0
BBX 5 9 1 0
BITMAP
30
30
F8
60
60
C0
C0
C0
F0
ENDCHAR
STARTCHAR u
ENCODING 117
SWIDTH 675 0
DWIDTH 8 0
BBX 7 7 1 0
BITMAP
66
66
66
CC
CC
DC
6C
ENDCHAR
STARTCHAR v
ENCODING 118
SWIDTH 630 0
DWIDTH 8 0
BBX 6 7 2 0
BITMAP
CC
CC
C8
D8
D0
E0
C0
ENDCHAR
STARTCHAR w
ENCODING 119
SWIDTH 878 0
DWIDTH 11 0
BBX 9 7 2 0
BITMAP
C180
C980
C980
D900
DB00
EE00
CC00
ENDCHAR
STARTCHAR x
ENCODING 120
SWIDTH 563 0
DWIDTH 8 0
BBX 9 7 0 0
BITMAP
3180
3900
1A00
1C00
2C00
4E00
C600
ENDCHAR
STARTCHAR y
ENCODING 121
SWIDTH 633 0
DWIDTH 8 0
BBX 8 9 0 -2
BITMAP
33
33
32
36
34
38
30
60
C0
ENDCHAR
STARTCHAR z
ENCODING 122
SWIDTH 630 0
DWIDTH 8 0
BBX 7 7 1 0
BITMAP
7E
0E
1C
38
70
E0
FC
ENDCHAR
STARTCHAR braceleft
ENCODING 123
SWIDTH 386 0
DWIDTH 5 0
BBX 5 11 0 -1
BITMAP
18
30
60
60
30
E0
30
60
C0
C0
60
ENDCHAR
STARTCHAR bar
ENCODING 124
SWIDTH 259 0
DWIDTH 5 0
BBX 4 11 1 -1
BITMAP
30
30
30
60
60
60
60
60
C0
C0
C0
ENDCHAR
STARTCHAR braceright
ENCODING 125
SWIDTH 386 0
DWIDTH 5 0
BBX 5 11 0 -1
BITMAP
30
18
18
30
60
38
60
30
30
60
C0
ENDCHAR
STARTCHAR asciitilde
ENCODING 126
SWIDTH 687 0
DWIDTH 9 0
BBX 7 3 1 3
BITMAP
72
FE
9C
ENDCHAR
STARTCHAR space
ENCODING 160
SWIDTH 343 0
DWIDTH 4 0
BBX 1 1 0 0
BITMAP
00
ENDCHAR
STARTCHAR exclamdown
ENCODING 161
SWIDTH 343 0
DWIDTH 5 0
BBX 4 9 1 -2
BITMAP
30
30
00
60
60
60
C0
C0
C0
ENDCHAR
STARTCHAR cent
ENCODING 162
SWIDTH 687 0
DWIDTH 8 0
BBX 7 11 1 -1
BITMAP
08
08
3C
66
C0
C0
C0
CC
78
20
20
ENDCHAR
STARTCHAR sterling
ENCODING 163
SWIDTH 687 0
DWIDTH 8 0
BBX 8 9 1 0
BITMAP
1E
33
30
30
FC
60
60
60
FE
ENDCHAR
STARTCHAR currency
ENCODING 164
SWIDTH 687 0
DWIDTH 8 0
BBX 10 9 0 0
BITMAP
30C0
1080
1F00
3300
3300
3300
3E00
4200
C300
ENDCHAR
STARTCHAR yen
ENCODING 165
SWIDTH 687 0
DWIDTH 8 0
BBX 8 9 1 0
BITMAP
63
63
66
6C
FE
30
FE
30
30
ENDCHAR
STARTCHAR brokenbar
ENCODING 166
SWIDTH 259 0
DWIDTH 4 0
BBX 4 11 1 -1
BITMAP
30
30
30
30
00
00
00
C0
C0
C0
C0
ENDCHAR
STARTCHAR section
ENCODING 167
SWIDTH 687 0
DWIDTH 8 0
BBX 7 10 1 -1
BITMAP
1C
36
30
78
4C
64
3C
18
D8
70
ENDCHAR
STARTCHAR dieresis
ENCODING 168
SWIDTH 663 0
DWIDTH 8 0
BBX 4 2 3 8
BITMAP
90
90
ENDCHAR
STARTCHAR copyright
ENCODING 169
SWIDTH 834 0
DWIDTH 10 0
BBX 9 9 1 0
BITMAP
1C00
6300
4D00
9480
9080
9080
4D00
6300
1C00
ENDCHAR
STARTCHAR ordfeminine
ENCODING 170
SWIDTH 539 0
DWIDTH 7 0
BBX 6 5 1 4
BITMAP
3C
6C
CC
D8
68
ENDCHAR
STARTCHAR guillemotleft
ENCODING 171
SWIDTH 633 0
DWIDTH 8 0
BBX 8 5 0 1
BITMAP
11
77
CC
66
22
ENDCHAR
STARTCHAR logicalnot
ENCODING 172
SWIDTH 687 0
DWIDTH 9 0
BBX 7 3 1 2
BITMAP
FE
02
02
ENDCHAR
STARTCHAR hyphen
ENCODING 173
SWIDTH 289 0
DWIDTH 4 0
BBX 3 1 1 4
BITMAP
E0
ENDCHAR
STARTCHAR registered
ENCODING 174
SWIDTH 691 0
DWIDTH 9 0
BBX 7 7 1 2
BITMAP
38
44
BA
B2
AA
44
38
ENDCHAR
STARTCHAR macron
ENCODING 175
SWIDTH 663 0
DWIDTH 8 0
BBX 4 1 3 8
BITMAP
F0
ENDCHAR
STARTCHAR degree
ENCODING 176
SWIDTH 241 0
DWIDTH 3 0
BBX 4 3 0 6
BITMAP
60
B0
60
ENDCHAR
STARTCHAR plusminus
ENCODING 177
SWIDTH 687 0
DWIDTH 9 0
BBX 7 7 1 1
BITMAP
08
08
7E
10
10
00
FC
ENDCHAR
STARTCHAR twosuperior
ENCODING 178
SWIDTH 539 0
DWIDTH 7 0
BBX 6 5 1 4
BITMAP
38
4C
18
60
F8
ENDCHAR
STARTCHAR threesuperior
ENCODING 179
SWIDTH 539 0
DWIDTH 7 0
BBX 6 5 1 4
BITMAP
78
0C
70
18
F0
ENDCHAR
STARTCHAR acute
ENCODING 180
SWIDTH 663 0
DWIDTH 8 0
BBX 3 2 3 8
BITMAP
60
C0
ENDCHAR
STARTCHAR mu
ENCODING 181
SWIDTH 681 0
DWIDTH 8 0
BBX 8 9 0 -2
BITMAP
33
33
33
66
66
6E
F6
C0
C0
ENDCHAR
STARTCHAR paragraph
ENCODING 182
SWIDTH 687 0
DWIDTH 8 0
BBX 7 10 1 -1
BITMAP
7E
F2
F2
76
24
24
6C
48
48
48
ENDCHAR
STARTCHAR periodcentered
ENCODING 183
SWIDTH 343 0
DWIDTH 8 0
BBX 2 2 4 3
BITMAP
C0
C0
ENDCHAR
STARTCHAR cedilla
ENCODING 184
SWIDTH 663 0
DWIDTH 8 0
BBX 4 2 1 -2
BITMAP
30
E0
ENDCHAR
STARTCHAR onesuperior
ENCODING 185
SWIDTH 539 0
DWIDTH 7 0
BBX 3 5 3 4
BITMAP
E0
60
60
C0
C0
ENDCHAR
STARTCHAR ordmasculine
ENCODING 186
SWIDTH 539 0
DWIDTH 7 0
BBX 6 5 1 4
BITMAP
38
6C
CC
D8
70
ENDCHAR
STARTCHAR guillemotright
ENCODING 187
SWIDTH 633 0
DWIDTH 8 0
BBX 8 5 0 1
BITMAP
44
66
33
EE
88
ENDCHAR
STARTCHAR onequarter
ENCODING 188
SWIDTH 1089 0
DWIDTH 14 0
BBX 13 9 1 0
BITMAP
E180
6300
6600
C600
CC70
18B0
1930
33F8
6060
ENDCHAR
STARTCHAR onehalf
ENCODING 189
SWIDTH 1089 0
DWIDTH 14 0
BBX 11 9 2 0
BITMAP
E180
6300
6600
CC00
DDC0
1A60
30E0
6180
C3E0
ENDCHAR
STARTCHAR threequarters
ENCODING 190
SWIDTH 1149 0
DWIDTH 14 0
BBX 14 9 0 0
BITMAP
7860
0CC0
3980
1980
F338
0658
0698
0DFC
1830
ENDCHAR
STARTCHAR questiondown
ENCODING 191
SWIDTH 539 0
DWIDTH 7 0
BBX 6 9 1 -2
BITMAP
0C
0C
00
18
18
70
C0
C0
78
ENDCHAR
STARTCHAR Agrave
ENCODING 192
SWIDTH 771 0
DWIDTH 9 0
BBX 8 11 0 0
BITMAP
06
03
00
07
0F
1B
33
3F
63
C3
C3
ENDCHAR
STARTCHAR Aacute
ENCODING 193
SWIDTH 771 0
DWIDTH 9 0
BBX 8 11 0 0
BITMAP
03
06
00
07
0F
1B
33
3F
63
C3
C3
ENDCHAR
STARTCHAR Acircumflex
ENCODING 194
SWIDTH 771 0
DWIDTH 9 0
BBX 9 11 0 0
BITMAP
0300
0580
0000
0700
0F00
1B00
3300
3F00
6300
C300
C300
ENDCHAR
STARTCHAR Atilde
ENCODING 195
SWIDTH 771 0
DWIDTH 9 0
BBX 9 11 0 0
BITMAP
0680
0B00
0000
0700
0F00
1B00
3300
3F00
6300
C300
C300
ENDCHAR
STARTCHAR Adieresis
ENCODING 196
SWIDTH 771 0
DWIDTH 9 0
BBX 8 11 0 0
BITMAP
09
09
00
07
0F
1B
33
3F
63
C3
C3
ENDCHAR
STARTCHAR Aring
ENCODING 197
SWIDTH 771 0
DWIDTH 9 0
BBX 9 11 0 0
BITMAP
0300
0580
0300
0700
0F00
1B00
3300
3F00
6300
C300
C300
ENDCHAR
STARTCHAR AE
ENCODING 198
SWIDTH 1004 0
DWIDTH 12 0
BBX 12 9 1 0
BITMAP
07F0
0B00
1B00
1300
33E0
7E00
6600
C600
C7E0
ENDCHAR
STARTCHAR Ccedilla
ENCODING 199
SWIDTH 737 0
DWIDTH 9 0
BBX 8 11 1 -2
BITMAP
0E
3B
60
60
C0
C0
C0
E2
7C
18
70
ENDCHAR
STARTCHAR Egrave
ENCODING 200
SWIDTH 642 0
DWIDTH 8 0
BBX 7 11 1 0
BITMAP
18
0C
00
7E
60
60
F8
C0
C0
C0
FC
ENDCHAR
STARTCHAR Eacute
ENCODING 201
SWIDTH 642 0
DWIDTH 8 0
BBX 7 11 1 0
BITMAP
0C
18
00
7E
60
60
F8
C0
C0
C0
FC
ENDCHAR
STARTCHAR Ecircumflex
ENCODING 202
SWIDTH 642 0
DWIDTH 8 0
BBX 7 11 1 0
BITMAP
18
2C
00
7E
60
60
F8
C0
C0
C0
FC
ENDCHAR
STARTCHAR Edieresis
ENCODING 203
SWIDTH 642 0
DWIDTH 8 0
BBX 7 11 1 0
BITMAP
24
24
00
7E
60
60
F8
C0
C0
C0
FC
ENDCHAR
STARTCHAR Igrave
ENCODING 204
SWIDTH 361 0
DWIDTH 5 0
BBX 3 11 1 0
BITMAP
C0
60
00
60
60
60
E0
C0
C0
C0
C0
ENDCHAR
STARTCHAR Iacute
ENCODING 205
SWIDTH 361 0
DWIDTH 5 0
BBX 4 11 1 0
BITMAP
30
60
00
60
60
60
E0
C0
C0
C0
C0
ENDCHAR
STARTCHAR Icircumflex
ENCODING 206
SWIDTH 361 0
DWIDTH 5 0
BBX 4 11 1 0
BITMAP
60
B0
00
60
60
60
E0
C0
C0
C0
C0
ENDCHAR
STARTCHAR Idieresis
ENCODING 207
SWIDTH 361 0
DWIDTH 5 0
BBX 4 11 1 0
BITMAP
90
90
00
60
60
60
E0
C0
C0
C0
C0
ENDCHAR
STARTCHAR Eth
ENCODING 208
SWIDTH 822 0
DWIDTH 10 0
BBX 10 9 0 0
BITMAP
3F80
31C0
30C0
30C0
FCC0
6180
6180
6700
7C00
ENDCHAR
STARTCHAR Ntilde
ENCODING 209
SWIDTH 789 0
DWIDTH 10 0
BBX 8 11 1 0
BITMAP
1A
2C
00
61
71
71
5B
DE
8E
86
86
ENDCHAR
STARTCHAR Ograve
ENCODING 210
SWIDTH 855 0
DWIDTH 11 0
BBX 9 11 1 0
BITMAP
0C00
0600
0000
0F00
3380
6180
6180
C300
C300
E600
7800
ENDCHAR
STARTCHAR Oacute
ENCODING 211
SWIDTH 855 0
DWIDTH 11 0
BBX 9 11 1 0
BITMAP
0300
0600
0000
0F00
3380
6180
6180
C300
C300
E600
7800
ENDCHAR
STARTCHAR Ocircumflex
ENCODING 212
SWIDTH 855 0
DWIDTH 11 0
BBX 9 11 1 0
BITMAP
0600
0B00
0000
0F00
3380
6180
6180
C300
C300
E600
7800
ENDCHAR
STARTCHAR Otilde
ENCODING 213
SWIDTH 855 0
DWIDTH 11 0
BBX 9 11 1 0
BITMAP
0300
0600
0000
0F00
3380
6180
6180
C300
C300
E600
7800
ENDCHAR
STARTCHAR Odieresis
ENCODING 214
SWIDTH 855 0
DWIDTH 11 0
BBX 9 11 1 0
BITMAP
0900
0900
0000
0F00
3380
6180
6180
C300
C300
E600
7800
ENDCHAR
STARTCHAR multiply
ENCODING 215
SWIDTH 687 0
DWIDTH 9 0
BBX 8 7 1 1
BITMAP
63
36
3C
18
3C
6C
C6
ENDCHAR
STARTCHAR Oslash
ENCODING 216
SWIDTH 855 0
DWIDTH 11 0
BBX 9 11 1 -1
BITMAP
0080
0F00
3B80
6380
6580
C980
D300
E300
EE00
7800
8000
ENDCHAR
STARTCHAR Ugrave
ENCODING 217
SWIDTH 759 0
DWIDTH 9 0
BBX 8 11 1 0
BITMAP
18
0C
00
63
63
63
E6
C6
C6
EC
78
ENDCHAR
STARTCHAR Uacute
ENCODING 218
SWIDTH 759 0
DWIDTH 9 0
BBX 8 11 1 0
BITMAP
06
0C
00
63
63
63
E6
C6
C6
EC
78
ENDCHAR
STARTCHAR Ucircumflex
ENCODING 219
SWIDTH 759 0
DWIDTH 9 0
BBX 8 11 1 0
BITMAP
0C
16
00
63
63
63
E6
C6
C6
EC
78
ENDCHAR
STARTCHAR Udieresis
ENCODING 220
SWIDTH 759 0
DWIDTH 9 0
BBX 8 11 1 0
BITMAP
12
12
00
63
63
63
E6
C6
C6
EC
78
ENDCHAR
STARTCHAR Yacute
ENCODING 221
SWIDTH 681 0
DWIDTH 9 0
BBX 7 11 2 0
BITMAP
0C
18
00
C6
C6
CC
D8
70
60
60
60
ENDCHAR
STARTCHAR Thorn
ENCODING 222
SWIDTH 645 0
DWIDTH 8 0
BBX 7 9 1 0
BITMAP
60
60
7C
66
C6
CE
FC
C0
C0
ENDCHAR
STARTCHAR germandbls
ENCODING 223
SWIDTH 708 0
DWIDTH 9 0
BBX 8 11 1 -1
BITMAP
1E
33
33
66
6C
66
66
C6
C6
DC
C0
ENDCHAR
STARTCHAR agrave
ENCODING 224
SWIDTH 681 0
DWIDTH 8 0
BBX 7 10 1 0
BITMAP
18
0C
00
3E
66
66
C6
CC
DC
EC
ENDCHAR
STARTCHAR aacute
ENCODING 225
SWIDTH 681 0
DWIDTH 8 0
BBX 7 10 1 0
BITMAP
0C
18
00
3E
66
66
C6
CC
DC
EC
ENDCHAR
STARTCHAR acircumflex
ENCODING 226
SWIDTH 681 0
DWIDTH 8 0
BBX 7 10 1 0
BITMAP
0C
16
00
3E
66
66
C6
CC
DC
EC
ENDCHAR
STARTCHAR atilde
ENCODING 227
SWIDTH 681 0
DWIDTH 8 0
BBX 7 10 1 0
BITMAP
1A
2C
00
3E
66
66
C6
CC
DC
EC
ENDCHAR
STARTCHAR adieresis
ENCODING 228
SWIDTH 681 0
DWIDTH 8 0
BBX 7 10 1 0
BITMAP
12
12
00
3E
66
66
C6
CC
DC
EC
ENDCHAR
STARTCHAR aring
ENCODING 229
SWIDTH 681 0
DWIDTH 8 0
BBX 7 10 1 0
BITMAP
0C
16
0C
3E
66
66
C6
CC
DC
EC
ENDCHAR
STARTCHAR ae
ENCODING 230
SWIDTH 987 0
DWIDTH 12 0
BBX 11 7 1 0
BITMAP
3BC0
6E60
0CE0
7F80
CC00
DCC0
7780
ENDCHAR
STARTCHAR ccedilla
ENCODING 231
SWIDTH 548 0
DWIDTH 7 0
BBX 6 9 1 -2
BITMAP
38
6C
C0
C0
C0
C0
78
30
E0
ENDCHAR
STARTCHAR egrave
ENCODING 232
SWIDTH 612 0
DWIDTH 8 0
BBX 7 10 1 0
BITMAP
18
0C
00
3C
66
CE
F8
C0
CC
78
ENDCHAR
STARTCHAR eacute
ENCODING 233
SWIDTH 612 0
DWIDTH 8 0
BBX 7 10 1 0
BITMAP
0C
18
00
3C
66
CE
F8
C0
CC
78
ENDCHAR
STARTCHAR ecircumflex
ENCODING 234
SWIDTH 612 0
DWIDTH 8 0
BBX 7 10 1 0
BITMAP
18
2C
00
3C
66
CE
F8
C0
CC
78
ENDCHAR
STARTCHAR edieresis
ENCODING 235
SWIDTH 612 0
DWIDTH 8 0
BBX 7 10 1 0
BITMAP
24
24
00
3C
66
CE
F8
C0
CC
78
ENDCHAR
STARTCHAR igrave
ENCODING 236
SWIDTH 343 0
DWIDTH 4 0
BBX 3 10 1 0
BITMAP
C0
60
00
60
60
60
60
C0
C0
C0
ENDCHAR
STARTCHAR iacute
ENCODING 237
SWIDTH 343 0
DWIDTH 4 0
BBX 4 10 1 0
BITMAP
30
60
00
60
60
60
60
C0
C0
C0
ENDCHAR
STARTCHAR icircumflex
ENCODING 238
SWIDTH 343 0
DWIDTH 4 0
BBX 4 10 1 0
BITMAP
60
B0
00
60
60
60
60
C0
C0
C0
ENDCHAR
STARTCHAR idieresis
ENCODING 239
SWIDTH 343 0
DWIDTH 4 0
BBX 4 10 1 0
BITMAP
90
90
00
60
60
60
60
C0
C0
C0
ENDCHAR
STARTCHAR eth
ENCODING 240
SWIDTH 663 0
DWIDTH 8 0
BBX 8 10 1 0
BITMAP
3B
0C
36
06
3E
66
C6
C6
CC
78
ENDCHAR
STARTCHAR ntilde
ENCODING 241
SWIDTH 675 0
DWIDTH 8 0
BBX 7 10 1 0
BITMAP
1A
2C
00
6E
76
66
66
CC
CC
CC
ENDCHAR
STARTCHAR ograve
ENCODING 242
SWIDTH 663 0
DWIDTH 8 0
BBX 7 10 1 0
BITMAP
18
0C
00
3C
66
C6
C6
C6
CC
78
ENDCHAR
STARTCHAR oacute
ENCODING 243
SWIDTH 663 0
DWIDTH 8 0
BBX 7 10 1 0
BITMAP
0C
18
00
3C
66
C6
C6
C6
CC
78
ENDCHAR
STARTCHAR ocircumflex
ENCODING 244
SWIDTH 663 0
DWIDTH 8 0
BBX 7 10 1 0
BITMAP
38
6C
00
3C
66
C6
C6
C6
CC
78
ENDCHAR
STARTCHAR otilde
ENCODING 245
SWIDTH 663 0
DWIDTH 8 0
BBX 7 10 1 0
BITMAP
1A
2C
00
3C
66
C6
C6
C6
CC
78
ENDCHAR
STARTCHAR odieresis
ENCODING 246
SWIDTH 663 0
DWIDTH 8 0
BBX 7 10 1 0
BITMAP
24
24
00
3C
66
C6
C6
C6
CC
78
ENDCHAR
STARTCHAR divide
ENCODING 247
SWIDTH 687 0
DWIDTH 9 0
BBX 7 7 1 1
BITMAP
18
18
00
FE
00
30
30
ENDCHAR
STARTCHAR oslash
ENCODING 248
SWIDTH 663 0
DWIDTH 8 0
BBX 9 9 0 -1
BITMAP
0080
1F00
3300
6700
6B00
7300
6600
7C00
8000
ENDCHAR
STARTCHAR ugrave
ENCODING 249
SWIDTH 675 0
DWIDTH 8 0
BBX 7 10 1 0
BITMAP
18
0C
00
66
66
66
CC
CC
DC
6C
ENDCHAR
STARTCHAR uacute
ENCODING 250
SWIDTH 675 0
DWIDTH 8 0
BBX 7 10 1 0
BITMAP
0C
18
00
66
66
66
CC
CC
DC
6C
ENDCHAR
STARTCHAR ucircumflex
ENCODING 251
SWIDTH 675 0
DWIDTH 8 0
BBX 7 10 1 0
BITMAP
18
2C
00
66
66
66
CC
CC
DC
6C
ENDCHAR
STARTCHAR udieresis
ENCODING 252
SWIDTH 675 0
DWIDTH 8 0
BBX 7 10 1 0
BITMAP
24
24
00
66
66
66
CC
CC
DC
6C
ENDCHAR
STARTCHAR yacute
ENCODING 253
SWIDTH 633 0
DWIDTH 8 0
BBX 8 12 0 -2
BITMAP
06
0C
00
33
33
32
36
34
38
30
60
C0
ENDCHAR
STARTCHAR thorn
ENCODING 254
SWIDTH 681 0
DWIDTH 8 0
BBX 8 11 0 -2
BITMAP
30
30
36
3B
73
63
66
66
7C
C0
C0
ENDCHAR
STARTCHAR ydieresis
ENCODING 255
SWIDTH 633 0
DWIDTH 8 0
BBX 8 12 0 -2
BITMAP
12
12
00
33
33
32
36
34
38
30
60
C0
ENDCHAR
ENDFONT
